<!DOCTYPE svg PUBLIC "-//W3C//DTD SVG 1.1//EN" "http://www.w3.org/Graphics/SVG/1.1/DTD/svg11.dtd">
<!-- Uploaded to: SVG Repo, www.svgrepo.com, Transformed by: SVG Repo Mixer Tools -->
<svg fill="#65bdaf" width="800px" height="800px" viewBox="-3.6 -3.6 43.20 43.20" version="1.1" preserveAspectRatio="xMidYMid meet" xmlns="http://www.w3.org/2000/svg" xmlns:xlink="http://www.w3.org/1999/xlink" stroke="#65bdaf" transform="matrix(1, 0, 0, 1, 0, 0)rotate(0)" stroke-width="0.576">
<g id="SVGRepo_bgCarrier" stroke-width="0"/>
<g id="SVGRepo_tracerCarrier" stroke-linecap="round" stroke-linejoin="round" stroke="#CCCCCC" stroke-width="0.5040000000000001"> <title>file-group-line</title> <path class="clr-i-outline clr-i-outline-path-1" d="M31,34H13a1,1,0,0,1-1-1V11a1,1,0,0,1,1-1H31a1,1,0,0,1,1,1V33A1,1,0,0,1,31,34ZM14,32H30V12H14Z"/>
<rect class="clr-i-outline clr-i-outline-path-2" x="16" y="16" width="12" height="2"/>
<rect class="clr-i-outline clr-i-outline-path-3" x="16" y="20" width="12" height="2"/>
<rect class="clr-i-outline clr-i-outline-path-4" x="16" y="24" width="12" height="2"/>
<path class="clr-i-outline clr-i-outline-path-5" d="M6,24V4H24V3a1,1,0,0,0-1-1H5A1,1,0,0,0,4,3V25a1,1,0,0,0,1,1H6Z"/>
<path class="clr-i-outline clr-i-outline-path-6" d="M10,28V8H28V7a1,1,0,0,0-1-1H9A1,1,0,0,0,8,7V29a1,1,0,0,0,1,1h1Z"/> <rect x="0" y="0" width="36" height="36" fill-opacity="0"/> </g>
<g id="SVGRepo_iconCarrier"> <title>file-group-line</title> <path class="clr-i-outline clr-i-outline-path-1" d="M31,34H13a1,1,0,0,1-1-1V11a1,1,0,0,1,1-1H31a1,1,0,0,1,1,1V33A1,1,0,0,1,31,34ZM14,32H30V12H14Z"/>
<rect class="clr-i-outline clr-i-outline-path-2" x="16" y="16" width="12" height="2"/>
<rect class="clr-i-outline clr-i-outline-path-3" x="16" y="20" width="12" height="2"/>
<rect class="clr-i-outline clr-i-outline-path-4" x="16" y="24" width="12" height="2"/>
<path class="clr-i-outline clr-i-outline-path-5" d="M6,24V4H24V3a1,1,0,0,0-1-1H5A1,1,0,0,0,4,3V25a1,1,0,0,0,1,1H6Z"/>
<path class="clr-i-outline clr-i-outline-path-6" d="M10,28V8H28V7a1,1,0,0,0-1-1H9A1,1,0,0,0,8,7V29a1,1,0,0,0,1,1h1Z"/> <rect x="0" y="0" width="36" height="36" fill-opacity="0"/> </g>
</svg>